<svg width="36" height="36" viewBox="0 0 36 36" fill="none" xmlns="http://www.w3.org/2000/svg">
<rect width="36" height="36" rx="5" fill="url(#paint0_linear_1184_359)" fill-opacity="0.4"/>
<path d="M22.2632 29C20.9526 29 19.8357 28.5123 18.9123 27.537C17.9889 26.5617 17.5269 25.3827 17.5263 24C17.5257 22.6173 17.9877 21.4383 18.9123 20.463C19.8369 19.4877 20.9539 19 22.2632 19C23.5724 19 24.6897 19.4877 25.6149 20.463C26.5402 21.4383 27.0019 22.6173 27 24C26.9981 25.3827 26.5361 26.562 25.614 27.538C24.6919 28.514 23.5749 29.0013 22.2632 29ZM23.85 26.375L24.5132 25.675L22.7368 23.8V21H21.7895V24.2L23.85 26.375ZM10.8947 28C10.3737 28 9.92779 27.8043 9.55705 27.413C9.18632 27.0217 9.00063 26.5507 9 26V12C9 11.45 9.18568 10.9793 9.55705 10.588C9.92842 10.1967 10.3743 10.0007 10.8947 10H14.85C15.0237 9.41667 15.3632 8.93767 15.8684 8.563C16.3737 8.18833 16.9263 8.00067 17.5263 8C18.1579 8 18.7225 8.18767 19.2202 8.563C19.7179 8.93833 20.0533 9.41733 20.2263 10H24.1579C24.6789 10 25.1252 10.196 25.4965 10.588C25.8679 10.98 26.0533 11.4507 26.0526 12V18.25C25.7684 18.0333 25.4684 17.85 25.1526 17.7C24.8368 17.55 24.5053 17.4167 24.1579 17.3V12H22.2632V15H12.7895V12H10.8947V26H15.9158C16.0263 26.3667 16.1526 26.7167 16.2947 27.05C16.4368 27.3833 16.6105 27.7 16.8158 28H10.8947ZM17.5263 12C17.7947 12 18.0199 11.904 18.2018 11.712C18.3837 11.52 18.4743 11.2827 18.4737 11C18.4731 10.7173 18.3821 10.48 18.2008 10.288C18.0196 10.096 17.7947 10 17.5263 10C17.2579 10 17.0331 10.096 16.8518 10.288C16.6705 10.48 16.5796 10.7173 16.5789 11C16.5783 11.2827 16.6693 11.5203 16.8518 11.713C17.0343 11.9057 17.2592 12.0013 17.5263 12Z" fill="#FFC83D"/>
<defs>
<linearGradient id="paint0_linear_1184_359" x1="18" y1="0" x2="18" y2="36" gradientUnits="userSpaceOnUse">
<stop stop-color="#FFF3C4" stop-opacity="0.8"/>
<stop offset="1" stop-color="#FFD54F"/>
</linearGradient>
</defs>
</svg>
