<svg width="36" height="36" viewBox="0 0 36 36" fill="none" xmlns="http://www.w3.org/2000/svg">
<rect width="36" height="36" rx="5" fill="url(#paint0_linear_1177_339)" fill-opacity="0.4"/>
<path d="M26.1818 22.5455V14.3636H13.4545V22.5455H26.1818ZM26.1818 9.81818C26.664 9.81818 27.1265 10.0097 27.4675 10.3507C27.8084 10.6917 28 11.1542 28 11.6364V22.5455C28 23.0277 27.8084 23.4901 27.4675 23.8311C27.1265 24.1721 26.664 24.3636 26.1818 24.3636H13.4545C12.9723 24.3636 12.5099 24.1721 12.1689 23.8311C11.8279 23.4901 11.6364 23.0277 11.6364 22.5455V11.6364C11.6364 11.1542 11.8279 10.6917 12.1689 10.3507C12.5099 10.0097 12.9723 9.81818 13.4545 9.81818H14.3636V8H16.1818V9.81818H23.4545V8H25.2727V9.81818H26.1818ZM9.81818 26.1818H22.5455V28H9.81818C9.33597 28 8.87351 27.8084 8.53253 27.4675C8.19156 27.1265 8 26.664 8 26.1818V15.2727H9.81818V26.1818ZM24.3636 20.7273H20.7273V17.0909H24.3636V20.7273Z" fill="#FFC83D"/>
<defs>
<linearGradient id="paint0_linear_1177_339" x1="18" y1="0" x2="18" y2="36" gradientUnits="userSpaceOnUse">
<stop stop-color="#FFF3C4" stop-opacity="0.8"/>
<stop offset="1" stop-color="#FFD54F"/>
</linearGradient>
</defs>
</svg>
