<svg width="24" height="24" viewBox="0 0 24 24" fill="none" xmlns="http://www.w3.org/2000/svg">
<path d="M7 17L10.9211 16.9866L19.4793 8.454C19.8152 8.11592 20 7.66693 20 7.18932C20 6.71171 19.8152 6.26272 19.4793 5.92464L18.0701 4.50612C17.3984 3.82995 16.2264 3.83353 15.56 4.50344L7 13.0378V17ZM16.8138 5.7708L18.2256 7.18664L16.8066 8.60158L15.3974 7.18395L16.8138 5.7708ZM8.77705 13.7837L14.1349 8.44148L15.544 9.86L10.1871 15.2005L8.77705 15.2049V13.7837Z" fill="black"/>
<path d="M5.66667 20H17.3333C18.2525 20 19 19.2525 19 18.3333V11.11L17.3333 12.7767V18.3333H8.29833C8.27667 18.3333 8.25417 18.3417 8.2325 18.3417C8.205 18.3417 8.1775 18.3342 8.14917 18.3333H5.66667V6.66667H11.3725L13.0392 5H5.66667C4.7475 5 4 5.7475 4 6.66667V18.3333C4 19.2525 4.7475 20 5.66667 20Z" fill="black"/>
</svg>
