<svg width="36" height="36" viewBox="0 0 36 36" fill="none" xmlns="http://www.w3.org/2000/svg">
<rect width="36" height="36" rx="5" fill="url(#paint0_linear_1182_356)" fill-opacity="0.2"/>
<path d="M19.5 14.2778H18V19.5555L22.28 22.2366L23 20.9594L19.5 18.7639V14.2778ZM19 9C16.6131 9 14.3239 10.0009 12.636 11.7825C10.9482 13.5641 10 15.9804 10 18.5H7L10.96 22.7538L15 18.5H12C12 16.5403 12.7375 14.6609 14.0503 13.2753C15.363 11.8896 17.1435 11.1111 19 11.1111C20.8565 11.1111 22.637 11.8896 23.9497 13.2753C25.2625 14.6609 26 16.5403 26 18.5C26 20.4596 25.2625 22.339 23.9497 23.7247C22.637 25.1104 20.8565 25.8888 19 25.8888C17.07 25.8888 15.32 25.0549 14.06 23.7144L12.64 25.2133C13.4716 26.1004 14.4623 26.8037 15.5543 27.2822C16.6463 27.7606 17.8177 28.0046 19 27.9999C21.3869 27.9999 23.6761 26.999 25.364 25.2175C27.0518 23.4359 28 21.0195 28 18.5C28 15.9804 27.0518 13.5641 25.364 11.7825C23.6761 10.0009 21.3869 9 19 9Z" fill="#22C55E" fill-opacity="0.75"/>
<defs>
<linearGradient id="paint0_linear_1182_356" x1="18" y1="0" x2="18" y2="36" gradientUnits="userSpaceOnUse">
<stop stop-color="#BBF7D0" stop-opacity="0.75"/>
<stop offset="1" stop-color="#4ADE80"/>
</linearGradient>
</defs>
</svg>
