<svg width="36" height="36" viewBox="0 0 36 36" fill="none" xmlns="http://www.w3.org/2000/svg">
<rect width="36" height="36" rx="5" fill="url(#paint0_linear_1177_351)" fill-opacity="0.4"/>
<path d="M23.8496 20.3827C23.8496 18.2541 25.3648 16.9617 27 16.5858V15.2939H8V16.5839C8.66372 16.7361 9.30154 17.044 9.83301 17.5204C10.6466 18.2498 11.1504 19.3202 11.1504 20.6474C11.1503 21.9745 10.6466 23.045 9.83301 23.7743C9.30166 24.2505 8.66354 24.5567 8 24.7089V25.9999H27V24.6757C26.2726 24.4606 25.6168 24.0266 25.1055 23.4823C24.3621 22.691 23.8497 21.5929 23.8496 20.3827ZM14.7783 13.2939H23.3779L22.1904 10.3036L14.7783 13.2939ZM25.8496 20.3827C25.8497 21.0251 26.1259 21.6474 26.5635 22.1132C27.0074 22.5856 27.5449 22.8232 28 22.8232C28.5522 22.8232 28.9998 23.271 29 23.8232V26.9999C29 27.5522 28.5523 27.9999 28 27.9999H7C6.44772 27.9999 6 27.5522 6 26.9999V23.8232C6.00016 23.271 6.44781 22.8232 7 22.8232C7.57203 22.8232 8.11272 22.6303 8.49805 22.2851C8.86555 21.9557 9.15029 21.4375 9.15039 20.6474C9.15039 19.8571 8.86554 19.3391 8.49805 19.0097C8.11271 18.6643 7.57215 18.4706 7 18.4706C6.44775 18.4706 6.00006 18.0228 6 17.4706V14.2939C6.00009 13.7417 6.44777 13.2939 7 13.2939H9.43262L22.376 8.07218L22.4697 8.03995C22.6913 7.97525 22.9295 7.98929 23.1436 8.08097C23.3881 8.18579 23.5815 8.38346 23.6797 8.63077L25.5283 13.2939H28C28.5522 13.2939 28.9999 13.7417 29 14.2939V17.4706C28.9999 18.0228 28.5522 18.4706 28 18.4706C26.8072 18.4706 25.8496 19.238 25.8496 20.3827Z" fill="#3B82F6"/>
<path d="M21.1744 21.4392C21.7267 21.4392 22.1744 21.8869 22.1744 22.4392C22.1743 22.9914 21.7266 23.4392 21.1744 23.4392H13.8248C13.2726 23.4392 12.825 22.9914 12.8248 22.4392C12.8248 21.8869 13.2725 21.4392 13.8248 21.4392H21.1744ZM16.9752 18.2625C17.5273 18.2627 17.9752 18.7103 17.9752 19.2625C17.9752 19.8146 17.5273 20.2622 16.9752 20.2625H13.8248C13.2725 20.2625 12.8248 19.8147 12.8248 19.2625C12.8248 18.7102 13.2725 18.2625 13.8248 18.2625H16.9752Z" fill="#3B82F6"/>
<defs>
<linearGradient id="paint0_linear_1177_351" x1="18" y1="0" x2="18" y2="36" gradientUnits="userSpaceOnUse">
<stop stop-color="#EFF6FF"/>
<stop offset="1" stop-color="#2563EB"/>
</linearGradient>
</defs>
</svg>
